<svg width="109" height="57" viewBox="0 0 109 57" fill="none" xmlns="http://www.w3.org/2000/svg">
<ellipse cx="98.1302" cy="26.5359" rx="10.8698" ry="16.1723" fill="#D8125B"/>
<path d="M76.8343 26.1598L100.08 43.0843H53.5887L76.8343 26.1598Z" fill="#D8125B"/>
<path d="M74.3942 28.4164L95.2464 10.3636L90.8098 38.9472L74.3942 28.4164Z" fill="#D8125B"/>
<ellipse cx="40.0335" cy="50.0237" rx="3.35083" ry="6.97628" transform="rotate(180 40.0335 50.0237)" fill="#D8125B"/>
<path d="M46.5984 50.1859L39.4325 42.8852H53.7644L46.5984 50.1859Z" fill="#D8125B"/>
<path d="M47.3506 49.2125L40.9225 57L42.2901 44.6698L47.3506 49.2125Z" fill="#D8125B"/>
<path d="M2.2017 24V5.81818H8.55824C9.82481 5.81818 10.8694 6.03717 11.6921 6.47514C12.5148 6.9072 13.1274 7.49017 13.5298 8.22408C13.9323 8.95206 14.1335 9.75994 14.1335 10.6477C14.1335 11.429 13.9944 12.0741 13.7163 12.5831C13.444 13.0921 13.083 13.4946 12.6332 13.7905C12.1893 14.0864 11.7069 14.3054 11.1861 14.4474V14.625C11.7424 14.6605 12.3017 14.8558 12.864 15.2109C13.4263 15.5661 13.8968 16.075 14.2756 16.7379C14.6544 17.4008 14.8438 18.2116 14.8438 19.1705C14.8438 20.0819 14.6366 20.9016 14.2223 21.6296C13.808 22.3576 13.154 22.9347 12.2603 23.3608C11.3666 23.7869 10.2036 24 8.77131 24H2.2017ZM4.40341 22.0469H8.77131C10.2095 22.0469 11.2305 21.7687 11.8342 21.2124C12.4438 20.6501 12.7486 19.9695 12.7486 19.1705C12.7486 18.5549 12.5917 17.9867 12.2781 17.4659C11.9644 16.9392 11.5175 16.5189 10.9375 16.2053C10.3575 15.8857 9.67093 15.7259 8.87784 15.7259H4.40341V22.0469ZM4.40341 13.8082H8.48722C9.1501 13.8082 9.74787 13.678 10.2805 13.4176C10.8191 13.1572 11.2453 12.7902 11.5589 12.3168C11.8786 11.8433 12.0384 11.2869 12.0384 10.6477C12.0384 9.84872 11.7602 9.17105 11.2038 8.6147C10.6475 8.05244 9.76563 7.77131 8.55824 7.77131H4.40341V13.8082ZM20.2725 15.7969V24H18.1774V5.81818H20.2725V12.4943H20.4501C20.7697 11.79 21.2491 11.2307 21.8883 10.8164C22.5334 10.3962 23.3916 10.1861 24.4629 10.1861C25.3921 10.1861 26.2059 10.3725 26.9043 10.7454C27.6027 11.1123 28.1442 11.6776 28.5289 12.4411C28.9196 13.1986 29.1149 14.1634 29.1149 15.3352V24H27.0197V15.4773C27.0197 14.3942 26.7386 13.5567 26.1763 12.9648C25.62 12.3671 24.8476 12.0682 23.8592 12.0682C23.1726 12.0682 22.5571 12.2132 22.0126 12.5032C21.474 12.7932 21.0479 13.2164 20.7342 13.7727C20.4264 14.3291 20.2725 15.0038 20.2725 15.7969ZM36.9607 24.3196C36.0966 24.3196 35.3124 24.1568 34.608 23.8313C33.9037 23.4999 33.3444 23.0234 32.9301 22.402C32.5158 21.7746 32.3087 21.017 32.3087 20.1293C32.3087 19.348 32.4626 18.7147 32.7703 18.2294C33.0781 17.7382 33.4894 17.3535 34.0044 17.0753C34.5193 16.7971 35.0874 16.59 35.7089 16.4538C36.3363 16.3118 36.9666 16.1993 37.5999 16.1165C38.4285 16.0099 39.1002 15.93 39.6151 15.8768C40.136 15.8176 40.5148 15.7199 40.7515 15.5838C40.9942 15.4477 41.1155 15.2109 41.1155 14.8736V14.8026C41.1155 13.9266 40.8758 13.246 40.3964 12.7607C39.9229 12.2753 39.2038 12.0327 38.2391 12.0327C37.2388 12.0327 36.4546 12.2517 35.8865 12.6896C35.3183 13.1276 34.9188 13.5952 34.6879 14.0923L32.6993 13.3821C33.0544 12.5535 33.5279 11.9084 34.1198 11.4467C34.7175 10.9792 35.3686 10.6536 36.0729 10.4702C36.7831 10.2808 37.4815 10.1861 38.1681 10.1861C38.606 10.1861 39.1091 10.2393 39.6773 10.3459C40.2514 10.4465 40.8048 10.6566 41.3374 10.9762C41.876 11.2958 42.3229 11.7782 42.678 12.4233C43.0331 13.0684 43.2107 13.9325 43.2107 15.0156V24H41.1155V22.1534H41.009C40.8669 22.4493 40.6302 22.766 40.2987 23.1033C39.9673 23.4407 39.5264 23.7277 38.9759 23.9645C38.4255 24.2012 37.7538 24.3196 36.9607 24.3196ZM37.2803 22.4375C38.1089 22.4375 38.8073 22.2747 39.3754 21.9492C39.9495 21.6237 40.3816 21.2035 40.6716 20.6886C40.9675 20.1737 41.1155 19.6321 41.1155 19.0639V17.1463C41.0267 17.2528 40.8314 17.3505 40.5296 17.4393C40.2336 17.5221 39.8904 17.5961 39.4997 17.6612C39.115 17.7204 38.7392 17.7737 38.3722 17.821C38.0112 17.8625 37.7182 17.898 37.4933 17.9276C36.9488 17.9986 36.4398 18.114 35.9664 18.2738C35.4988 18.4277 35.12 18.6615 34.83 18.9751C34.5459 19.2829 34.4039 19.7031 34.4039 20.2358C34.4039 20.9638 34.6731 21.5142 35.2117 21.8871C35.7562 22.254 36.4458 22.4375 37.2803 22.4375ZM52.5391 29.3977C51.527 29.3977 50.657 29.2675 49.929 29.0071C49.201 28.7526 48.5943 28.4152 48.109 27.995C47.6296 27.5807 47.2479 27.1368 46.9638 26.6634L48.6328 25.4915C48.8222 25.7401 49.0619 26.0241 49.3519 26.3438C49.6419 26.6693 50.0385 26.9504 50.5415 27.1871C51.0505 27.4298 51.7164 27.5511 52.5391 27.5511C53.6399 27.5511 54.5484 27.2848 55.2646 26.7521C55.9807 26.2195 56.3388 25.3849 56.3388 24.2486V21.4787H56.1612C56.0073 21.7273 55.7884 22.035 55.5043 22.402C55.2261 22.763 54.8236 23.0856 54.2969 23.3697C53.776 23.6478 53.0717 23.7869 52.1839 23.7869C51.0831 23.7869 50.0947 23.5265 49.2188 23.0057C48.3487 22.4848 47.6592 21.7273 47.1502 20.733C46.6471 19.7386 46.3956 18.5312 46.3956 17.1108C46.3956 15.714 46.6412 14.4978 47.1325 13.462C47.6237 12.4203 48.3073 11.6154 49.1832 11.0472C50.0592 10.4731 51.0713 10.1861 52.2195 10.1861C53.1072 10.1861 53.8116 10.334 54.3324 10.63C54.8591 10.92 55.2616 11.2514 55.5398 11.6243C55.8239 11.9912 56.0429 12.2931 56.1967 12.5298H56.4098V10.3636H58.4339V24.3906C58.4339 25.5625 58.1676 26.5154 57.6349 27.2493C57.1082 27.9891 56.398 28.5307 55.5043 28.8739C54.6165 29.2231 53.6281 29.3977 52.5391 29.3977ZM52.468 21.9048C53.3085 21.9048 54.0187 21.7125 54.5987 21.3278C55.1787 20.9431 55.6197 20.3897 55.9215 19.6676C56.2234 18.9455 56.3743 18.0814 56.3743 17.0753C56.3743 16.0928 56.2263 15.2257 55.9304 14.4741C55.6345 13.7224 55.1965 13.1335 54.6165 12.7074C54.0365 12.2812 53.3203 12.0682 52.468 12.0682C51.5803 12.0682 50.8404 12.2931 50.2486 12.7429C49.6626 13.1927 49.2217 13.7964 48.9258 14.554C48.6358 15.3116 48.4908 16.152 48.4908 17.0753C48.4908 18.0223 48.6387 18.8597 48.9347 19.5877C49.2365 20.3098 49.6804 20.878 50.2663 21.2923C50.8582 21.7006 51.5921 21.9048 52.468 21.9048ZM63.6186 29.1136C63.2635 29.1136 62.9469 29.084 62.6687 29.0249C62.3905 28.9716 62.1982 28.9183 62.0916 28.8651L62.6243 27.0185C63.1333 27.1487 63.5831 27.196 63.9737 27.1605C64.3643 27.125 64.7106 26.9504 65.0124 26.6367C65.3202 26.329 65.6013 25.8288 65.8558 25.1364L66.2464 24.071L61.2038 10.3636H63.4766L67.2408 21.2301H67.3828L71.147 10.3636H73.4197L67.6314 25.9886C67.371 26.6929 67.0484 27.2759 66.6637 27.7376C66.279 28.2051 65.8321 28.5514 65.3232 28.7763C64.8201 29.0012 64.2519 29.1136 63.6186 29.1136ZM79.7829 24.3196C78.9188 24.3196 78.1346 24.1568 77.4303 23.8313C76.726 23.4999 76.1667 23.0234 75.7524 22.402C75.3381 21.7746 75.1309 21.017 75.1309 20.1293C75.1309 19.348 75.2848 18.7147 75.5926 18.2294C75.9004 17.7382 76.3117 17.3535 76.8266 17.0753C77.3415 16.7971 77.9097 16.59 78.5312 16.4538C79.1585 16.3118 79.7889 16.1993 80.4221 16.1165C81.2507 16.0099 81.9225 15.93 82.4374 15.8768C82.9582 15.8176 83.337 15.7199 83.5738 15.5838C83.8164 15.4477 83.9378 15.2109 83.9378 14.8736V14.8026C83.9378 13.9266 83.6981 13.246 83.2187 12.7607C82.7452 12.2753 82.0261 12.0327 81.0613 12.0327C80.0611 12.0327 79.2769 12.2517 78.7087 12.6896C78.1405 13.1276 77.741 13.5952 77.5102 14.0923L75.5216 13.3821C75.8767 12.5535 76.3502 11.9084 76.942 11.4467C77.5398 10.9792 78.1908 10.6536 78.8952 10.4702C79.6054 10.2808 80.3038 10.1861 80.9903 10.1861C81.4283 10.1861 81.9314 10.2393 82.4996 10.3459C83.0737 10.4465 83.627 10.6566 84.1597 10.9762C84.6983 11.2958 85.1452 11.7782 85.5003 12.4233C85.8554 13.0684 86.0329 13.9325 86.0329 15.0156V24H83.9378V22.1534H83.8312C83.6892 22.4493 83.4524 22.766 83.121 23.1033C82.7896 23.4407 82.3486 23.7277 81.7982 23.9645C81.2478 24.2012 80.576 24.3196 79.7829 24.3196ZM80.1025 22.4375C80.9311 22.4375 81.6295 22.2747 82.1977 21.9492C82.7718 21.6237 83.2039 21.2035 83.4939 20.6886C83.7898 20.1737 83.9378 19.6321 83.9378 19.0639V17.1463C83.849 17.2528 83.6537 17.3505 83.3518 17.4393C83.0559 17.5221 82.7126 17.5961 82.322 17.6612C81.9373 17.7204 81.5615 17.7737 81.1945 17.821C80.8335 17.8625 80.5405 17.898 80.3156 17.9276C79.7711 17.9986 79.2621 18.114 78.7886 18.2738C78.3211 18.4277 77.9423 18.6615 77.6523 18.9751C77.3682 19.2829 77.2261 19.7031 77.2261 20.2358C77.2261 20.9638 77.4954 21.5142 78.034 21.8871C78.5785 22.254 79.268 22.4375 80.1025 22.4375Z" fill="white"/>
</svg>
